<svg xmlns="http://www.w3.org/2000/svg" xmlns:xlink="http://www.w3.org/1999/xlink" width="100" height="100" viewBox="0 0 100 100"><g><g transform="translate(50 50) scale(0.69 0.69) rotate(0) translate(-50 -50)" style="fill:#ffffff"><svg fill="#ffffff" xmlns="http://www.w3.org/2000/svg" viewBox="0 0 32 32" x="0px" y="0px"><title>office</title><g><path d="M28.19,5H3.81A2.82,2.82,0,0,0,1,7.81V24.19A2.82,2.82,0,0,0,3.81,27H28.19A2.82,2.82,0,0,0,31,24.19V7.81A2.82,2.82,0,0,0,28.19,5ZM3,7.81s0,0,0,0l8.94,6.87L3,23.58Zm13,7.43L5.29,7H26.71Zm-2.46.63,1.85,1.42a1,1,0,0,0,1.22,0l1.85-1.42L27.58,25H4.41Zm6.51-1.23L29,7.77s0,0,0,0V23.58Z"></path></g></svg></g></g></svg>